# xmcd CD database file
#
# Track frame offsets:
#	151
#	18709
#	47192
#	70223
#	92948
#	117683
#	143061
#	162741
#	190284
#	211771
#
# Disc length: 3090 seconds
#
# Revision: 0
# Processed by: cddbd v1.4PL0 Copyright (c) Steve Scherf et al.
# Submitted via: CDex 1.50beta10
#
DISCID=9b0c100a
DTITLE=Julie Blue - Heart Of The River
DYEAR=2002
DGENRE=New Age
TTITLE0=Close To The Heart
TTITLE1=Water Passages
TTITLE2=Between The Moon And Sun
TTITLE3=Waterfall
TTITLE4=Heart Of The River
TTITLE5=Flying Passages
TTITLE6=Mosaic
TTITLE7=Lullabye For A While
TTITLE8=Sometime, The Rain
TTITLE9=Seeds Of Joy
EXTD=YEAR: 2002
EXTT0=
EXTT1=
EXTT2=
EXTT3=
EXTT4=
EXTT5=
EXTT6=
EXTT7=
EXTT8=
EXTT9=
PLAYORDER=
